<?xml version="1.0" encoding="utf-8"?>
<!-- Generator: Adobe Illustrator 23.1.0, SVG Export Plug-In . SVG Version: 6.00 Build 0)  -->
<svg version="1.1" id="Layer_1" xmlns="http://www.w3.org/2000/svg" xmlns:xlink="http://www.w3.org/1999/xlink" x="0px" y="0px"
	 viewBox="0 0 250 250.2" style="enable-background:new 0 0 250 250.2;" xml:space="preserve">
<style type="text/css">
	.st0{fill:#212121;}
	.st1{fill:#F4C603;}
	.st2{fill:none;stroke:#212121;stroke-width:4;stroke-linecap:round;stroke-miterlimit:10;}
	.st3{fill:none;stroke:#000000;stroke-miterlimit:10;stroke-dasharray:20,10;}
	.st4{fill:none;stroke:#000000;stroke-miterlimit:10;}
	.st5{fill:none;stroke:#000000;stroke-width:3;stroke-linecap:round;stroke-miterlimit:10;}
</style>
<g>
	<g id="battery">
		<path class="st0 cell0" d="M163.1,146.5h-16.7c-2.8,0-5-2.3-5-5v-30c0-2.8,2.3-5,5-5h16.7c2.8,0,5,2.3,5,5v30
			C168.1,144.2,165.8,146.5,163.1,146.5z"/>
		<path class="st0 cell1" d="M133.9,146.5h-16.7c-2.8,0-5-2.3-5-5v-30c0-2.8,2.3-5,5-5h16.7c2.8,0,5,2.3,5,5v30
			C138.9,144.2,136.7,146.5,133.9,146.5z"/>
		<path class="st0 cell2" d="M104.8,146.5H88.1c-2.8,0-5-2.3-5-5v-30c0-2.8,2.3-5,5-5h16.7c2.8,0,5,2.3,5,5v30
			C109.8,144.2,107.6,146.5,104.8,146.5z"/>
		<polygon id="flash" class="st1" points="116.6,114.3 123.1,130 127.7,125.9 134.2,135.6 129.1,120.4 123.6,124 		"/>
		<path class="st2" d="M162.8,150.6H87.4c-6.6,0-12-5.4-12-12v-24.1c0-6.6,5.4-12,12-12h75.3c6.6,0,12,5.4,12,12v24.1
			C174.8,145.2,169.4,150.6,162.8,150.6z"/>
		<path class="st0" d="M72.5,143.1h-7.8c-1.6,0-3-1.4-3-3v-26.5c0-1.6,1.4-3,3-3h7.8c1.6,0,3,1.4,3,3v26.5
			C75.5,141.7,74.1,143.1,72.5,143.1z"/>
	</g>
	<g class="batteryArrow">
		<path id="dashed" class="st3" d="M224.9,121.2c0,1.3,0.1,2.6,0.1,3.9c0,55.2-44.8,100-100,100s-100-44.8-100-100s44.8-100,100-100
			c52.8,0,96.1,40.9,99.7,92.8"/>
		<path id="line" class="st3" d="M224.9,121.2c0,1.3,0.1,2.6,0.1,3.9c0,55.2-44.8,100-100,100s-100-44.8-100-100
			s44.8-100,100-100c52.8,0,96.1,40.9,99.7,92.8"/>
		<polyline id="pointer" class="st5" points="195.6,33.8 198.8,57.8 175.2,57.4 		"/>
	</g>
</g>
</svg>
