<svg id="Layer_1" data-name="Layer 1" xmlns="http://www.w3.org/2000/svg" viewBox="0 0 507.43 100.53"><defs><style>.cls-1{fill:#656464;}.cls-2{fill:#c30037;}.cls-3{fill:#fff;}</style></defs><title>Logo</title><path class="cls-1" d="M776.65,406.36v62.85h17.78c21.24,0,34.85-8.58,34.85-31.81,0-22.8-13.26-31-33.11-31Zm19.61,11c11.7,0,19.59,6.07,19.59,19.68,0,16.21-7.81,20.89-21.15,20.89H790V417.37Zm38-11.44v10.14h12.74V405.93Zm.09,19.59v43.69H847V425.52Zm53.65,2.77a38.4,38.4,0,0,0-17.16-3.81c-12.22,0-18.73,5.2-18.73,13.26,0,8.24,5.29,12,12.05,13.52l4.94,1.13c4.42,1,7.2,2.43,7.2,4.6,0,2.68-2.78,4.07-6.76,4.07A32.38,32.38,0,0,1,855,457.33l-3.2,9a36.48,36.48,0,0,0,17.68,4.07c11.71,0,18.9-4.59,18.9-14.21,0-6.42-4-10.06-9.28-11.62-1.47-.43-4.16-1.21-6.06-1.65-4.6-.95-9.19-1.9-9.19-5.37,0-2.6,2.77-4,7.28-4a28.61,28.61,0,0,1,13.35,3.21Zm5.38-2.86v64.71l12.48-1.65v-19.8a29,29,0,0,0,8.84,1.56c15.26,0,20.2-8.76,20.2-24.27,0-13.79-6.85-21.59-17.86-21.59-4.07,0-8.84,1.39-11.35,3.3v-2.26ZM906,459.93V436.1a12.24,12.24,0,0,1,6.42-1.91c5.63,0,10.23,2.6,10.23,13,0,11.79-4.94,14-11,14a14.51,14.51,0,0,1-5.64-1.3Zm76.37-19.5v1.39h-6c-11.53,0-19.59,3.9-19.59,14.73,0,6.85,2.25,13.7,14.9,13.7a18.62,18.62,0,0,0,12.14-4.86c2.77,3.3,6.15,4.34,11.1,4.34a22.38,22.38,0,0,0,3.55-.26v-9.1c-2.78-.09-3.29-1-3.29-5.2V442.94c0-13.78-4.6-18.72-17.69-18.72a40.06,40.06,0,0,0-18.89,4.33l2.51,8.15A28.16,28.16,0,0,1,974,433.5c6.33,0,8.33,3.29,8.33,6.93Zm0,9.62v8.06a11,11,0,0,1-7.37,3.12,5.07,5.07,0,0,1-5.46-5.37c0-3.47,2.68-5.89,7-5.89,1.47,0,4.42,0,5.81.08ZM939.45,406.1v63.11H952.1V406.1Zm90.24,19.42-8.67,29h-1.65l-9.27-29H996.75l17.59,43.78c-2.6,9.36-6.06,11.09-12.57,11.09a18.8,18.8,0,0,1-3.38-.26l-1.47,9.8a27,27,0,0,0,6.59.6c11.44,0,16.9-5.89,21.23-17.6l17.43-47.41Z" transform="translate(-534.74 -390)"/><path class="cls-2" d="M583,486.43a48.22,48.22,0,1,0-48.25-48.2A48.23,48.23,0,0,0,583,486.43" transform="translate(-534.74 -390)"/><polygon class="cls-3" points="46.31 27.06 46.31 69.37 59.76 69.37 59.76 65.56 50.19 65.56 50.19 27.06 46.31 27.06"/><path class="cls-3" d="M567.58,428.61a5.79,5.79,0,1,0-5.78-5.78,5.78,5.78,0,0,0,5.78,5.78" transform="translate(-534.74 -390)"/><path class="cls-3" d="M584.92,397.87c-.5,0-1.46-.05-1.92-.05a40.38,40.38,0,1,0,40.38,40.39v-1.8H594.53v3.72h25c0,.08,0,.47,0,.58a36.6,36.6,0,0,1-62.4,23.37A36.59,36.59,0,0,1,583,401.61c.42,0,1.45,0,1.92,0Z" transform="translate(-534.74 -390)"/><path class="cls-1" d="M667.52,406.24H653V469h44.53V456.78h-30Zm61.94,38.84h11.8v11a33.35,33.35,0,0,1-10.46,1.65c-13,0-17.4-6.62-17.4-20.09,0-12.83,4.14-20.4,17.19-20.4,7.26,0,11.4,2.28,14.81,6.63l9-8.29c-5.5-7.87-15.13-10.25-24.14-10.25-20.3,0-31,11.08-31,32.21s9.63,32.41,30.86,32.41c9.74,0,19.26-2.48,24.44-6.1V433.38H729.46Z" transform="translate(-534.74 -390)"/></svg>